<?xml version="1.0" encoding="utf-8"?>
<!-- Generator: Adobe Illustrator 25.4.1, SVG Export Plug-In . SVG Version: 6.00 Build 0)  -->
<svg version="1.1" id="Layer_1" xmlns="http://www.w3.org/2000/svg" xmlns:xlink="http://www.w3.org/1999/xlink" x="0px" y="0px"
	 viewBox="0 0 950 950" style="enable-background:new 0 0 950 950;" xml:space="preserve">
<style type="text/css">
	.st0{fill:none;}
	.st1{fill:#F3F0EE;}
	.st2{fill:#E0E0E0;}
</style>
<g>
	<rect x="0" y="0" class="st0" width="950" height="950"/>
	<rect x="0" y="0" class="st1" width="950" height="950"/>
	<g>
		<polygon class="st2" points="950,949.3 475.7,475 475,475.7 949.3,950 950,950 		"/>
		<polygon class="st2" points="475,474.3 0.7,0 0,0 0,0.7 474.3,475 		"/>
		<polygon class="st2" points="475.7,475 950,0.7 950,0 949.3,0 475,474.3 		"/>
		<polygon class="st2" points="474.3,475 0,949.3 0,950 0.7,950 475,475.7 		"/>
		<rect x="474.5" y="474.5" transform="matrix(0.707 -0.7072 0.7072 0.707 -196.7514 475.0583)" class="st2" width="1" height="1"/>
	</g>
</g>
</svg>
