<?xml version="1.0" encoding="utf-8"?>
<!-- Generator: Adobe Illustrator 25.4.1, SVG Export Plug-In . SVG Version: 6.00 Build 0)  -->
<svg version="1.1" id="Layer_1" xmlns="http://www.w3.org/2000/svg" xmlns:xlink="http://www.w3.org/1999/xlink" x="0px" y="0px"
	 viewBox="0 0 947.9 1170.4" style="enable-background:new 0 0 947.9 1170.4;" xml:space="preserve">
<style type="text/css">
	.st0{fill:#1E0F28;}
	.st1{fill:#C0223E;}
	.st2{fill:#7D3040;}
	.st3{fill:#77253E;}
	.st4{fill:#A22A45;}
</style>
<g>
	<g>
		<path class="st0" d="M298.2,800.9c0,1.8-3.5,2.7-10.5,2.9c-7.8,0.2-13,2.8-15.6,7.7c-2.6,4.9-6.5,15.4-11.9,31.5
			c-9.3,28.2-17.5,52.2-24.7,72c-12.3,33.8-23.6,66.4-33.6,97.9c-0.8,2.7-1.9,4-3.2,4c-1.1,0-2.1-1-3-3.1c-0.9-2-3.7-9.2-8.4-21.5
			c-5.8-16.1-12-32.4-18.8-48.7c-5.3-12.8-10.6-26-15.7-39.7c-14.4,34.8-28.7,71.2-42.9,109.2c-0.8,2.5-1.8,3.8-3,3.8
			c-1,0-2.2-1.7-3.6-5.2c-6.4-15.2-30.1-78.4-71.1-189.4c-2.9-7.8-5-12.7-6.5-14.7c-1.4-2-5-3-10.8-3.2C5,804,0,802.6,0,800.1
			c0-1.9,1.7-2.8,4.9-2.8c1.4,0,2.7,0.1,3.7,0.3c10.9,0.6,22.7,0.9,35.2,0.9c2.5,0,6.7-0.2,12.8-0.6c6.1-0.4,13.9-0.6,23.6-0.6h3.4
			c3.5,0,5.2,0.9,5.2,2.8c0,2.3-3.2,3.6-9.5,3.8c-12.7,0.4-19,2.1-19,5c0,5.8,18.9,59.4,56.8,161c13.8-34.8,24-60.4,30.8-76.9
			L117.6,814c-1.7-4.3-3.6-7.1-5.8-8.3s-6.2-2-12-2.2c-5.8-0.2-8.7-1.1-8.7-2.8c0-2.3,2.2-3.4,6.5-3.4c3.3,0,7.3,0.2,12,0.6
			c4.7,0.4,13,0.6,24.7,0.6h23.5h34c7.6,0,16.8-0.3,27.5-1c1.2-0.2,2.7-0.2,4.3-0.2c4.9,0,7.4,1.1,7.4,3.3c0,2-1.8,2.9-5.2,2.9h-5.3
			c-9.3,0-16.3,1.2-21,3.7c-2.1,1-5.9,8.4-11.4,22.2c-2.5,5.8-6.7,15.5-12.5,29.3c-1.2,3.1-3,7.8-5.4,14c1.4,4.1,5.9,15.6,13.5,34.3
			c9.8,23.8,17.8,44.3,24.2,61.3c11.6-33.4,25.2-72.8,41-118.3c8.3-24.2,12.5-37.7,12.5-40.4c0-3.9-3.6-5.9-10.8-5.9
			c-10.1,0-15.1-1.1-15.1-3.4c0-2.1,2.1-3.1,6.2-3.1c3.5,0,6.3,0.1,8.3,0.4c4.5,0.5,8.6,0.8,12.4,0.8H287c6.2,0,9.6,0.2,10.2,0.7
			C297.9,799.8,298.2,800.3,298.2,800.9z M167.5,804.4h-3.7h-5.2c-7.4,0.4-11.1,1.8-11.1,4c0,0.4,6.1,18.3,18.2,53.7
			c4.7-10.3,10.2-23.9,16.6-40.8c0.8-2.3,2.1-5.2,3.8-8.9l0.6-2.5C186.6,806.3,180.2,804.4,167.5,804.4z"/>
		<path class="st0" d="M440.3,1010.4c0,1.7-1.2,2.6-3.7,2.6h-3.1c-1.2-0.6-15.3-0.9-42.2-0.9c-5.2,0-10.3,0.2-15.5,0.6
			c-2.7,0.2-6.8,0.3-12.4,0.3c-2.7,0-4-0.9-4-2.8c0-1.6,2.7-2.6,8-2.8c8.2-0.2,13.1-1.2,14.5-2.9c1.4-1.8,2.2-7.7,2.2-17.8v-163
			c0-10.1-0.5-15.8-1.6-17c-1.3-2.1-7-3.3-17.2-3.7c-4-0.2-5.9-0.9-5.9-2.2c0-1.6,1.2-2.5,3.7-2.5h42.2c3.1,0,9.2,0.1,18.1,0.3
			l11.9-0.3c3.3,0,5,0.9,5,2.6c0,1.6-4.6,2.5-13.9,2.9c-5.3,0.2-8.5,1.1-9.7,2.8c-1.2,1.7-1.7,6-1.7,13v165
			c0,11.7,0.5,18.1,1.6,19.2c2.3,2.3,9.1,3.6,20.3,4C439.1,1007.7,440.3,1008.6,440.3,1010.4z"/>
		<path class="st0" d="M708.4,801.3c0,2.1-2.6,3-7.7,2.8h-6.8h-5.6c-3.3,0-5.2,0.6-5.9,1.7c-0.6,1.1-0.9,4.6-0.9,10.3v177.7
			c0,10.9-0.1,17.3-0.3,19.1c-0.2,1.8-0.8,2.8-1.8,2.8c-1.2,0-2.7-1.1-4.3-3.4l-39.5-57.8c-22.9-33.6-50.7-75.5-83.5-125.8v172.5
			c0.2,2.7,1.8,4.4,4.7,5.1c2.9,0.7,9.9,1.2,20.9,1.4c2.7,0,4.1,0.8,4.1,2.5c0,2.1-2.7,3.1-8,3.1c-1.8,0-7.7-0.3-17.6-0.9
			c-3.3-0.2-6.5-0.3-9.6-0.3c0.2,0-1.6,0.2-5.4,0.6c-3.8,0.4-9.6,0.6-17.5,0.6h-3.1c-4.7,0-7.1-0.9-7.1-2.8s2.1-2.8,6.2-2.8
			c12.2-0.2,19.2-1,21.2-2.3c2-1.3,2.9-5.7,2.9-13.1V839.7c0-17.1-3.5-27.8-10.5-32.2c-3.3-2.1-9.2-3.1-17.6-3.1c-5.4,0-8-1.1-8-3.3
			c0-2,1.5-2.9,4.6-2.9c4.1,0,9.4,0.2,15.8,0.6c6.4,0.4,9.8,0.6,10.2,0.6c0.6,0,3.5-0.1,8.6-0.3c6.8,0,13.4-0.3,19.8-0.9
			l106.6,159.1V819.9c0-6.4-0.1-10.2-0.3-11.6c-0.2-1.3-1-2.4-2.5-3.1c-1.4-0.7-6.4-1.1-14.8-1.1c-7.4,0-11.1-0.9-11.1-2.8
			c0-2.1,2.5-3.1,7.4-3.1h10.8c2.7,0,5.6,0,8.7,0c3.3,0,5.2,0,5.9,0c0.2,0,2.1,0,5.6,0c3.3,0,6.4,0,9.3,0h9.6
			C706.2,798.3,708.4,799.3,708.4,801.3z"/>
		<path class="st0" d="M947.9,963.2c0,0.8-0.2,5.9-0.6,15.1c-0.4,9.3-0.6,18.1-0.6,26.6v10.2c-20.2-1.2-60.1-1.9-119.9-1.9
			c-7.2,0-14.3,0-21.3,0s-11.7,0-14.2,0h-3.1c-3.9,0-5.9-0.8-5.9-2.5c0-1.1,0.6-1.8,1.9-1.9c0.6,0,4.5-0.3,11.7-0.8
			c5.4-0.4,8.6-1.5,9.7-3.4c1.1-1.9,1.7-6.7,1.7-14.6V815.9c0-6-0.9-9.6-2.6-10.7c-1.8-1.1-7.4-1.7-16.8-1.7c-3.3,0-4.9-0.9-4.9-2.6
			c0-1.7,2.3-2.6,6.8-2.6h52.8c1.9,0,13.5,0,34.9,0c21.4,0,35.8,0,43.3,0c6.2,0,11.8-0.4,17-1.2c0.4,8.9,1.3,21.1,2.8,36.8l1.2,13.3
			c0.2,1,0.3,2.4,0.3,4c0,2.1-0.9,3.1-2.8,3.1c-2.3,0-3.9-2.6-4.9-7.8c-3.9-18.7-10.3-30.5-19.2-35.5c-6.6-3.7-23.9-5.6-51.9-5.6
			h-25.3v90.8h7.4c23.1,0,37.1-1.7,42.2-5.3c5-3.5,8.5-13.7,10.3-30.6c0.4-4.3,1.5-6.5,3.4-6.5c2.3,0,3.4,1.8,3.4,5.6
			c0,3.7-0.2,9.2-0.6,16.4c-0.4,7.2-0.6,12.7-0.6,16.4c0,22,0.3,37.2,1,45.4c0.2,2.1,0.2,3.8,0.2,5.3c0,2.7-1.1,4-3.4,4
			c-1.4,0-2.4-0.9-2.9-2.6c-0.5-1.7-1.4-7.5-2.6-17.1c-1.6-12.2-6.7-19.7-15.1-22.6c-3.7-1.2-13.3-1.8-28.9-1.8h-13.8v103.5
			c45.3,0,71.9-0.9,79.7-2.7c13.6-3,21.3-16.1,23.2-39.1c0.4-5.1,1.7-7.6,4-7.6C946.8,956.7,947.9,958.9,947.9,963.2z"/>
	</g>
	<g>
		<path class="st0" d="M425.5,698.1c0,0.7-0.3,1.1-1,1.1c-0.7,0-1.2-0.7-1.5-2.2c-0.1-1-0.2-2.1-0.3-3.1c-0.4-2.1-1.1-3.8-2-5.2
			c-1.2-1.9-3.2-3.1-5.9-3.6c-1.8-0.3-3.2-0.5-4.3-0.4c-2.7,0.1-4.3,0.1-4.9,0.2v51.6c0,2.1,0.5,3.3,1.6,3.9
			c0.6,0.3,2.2,0.5,4.8,0.5c0.7,0.1,1,0.3,1,0.7c0,0.5-0.5,0.7-1.4,0.7c-0.5,0-0.9,0-1.2-0.1c-3.4-0.1-5.8-0.2-7.3-0.2
			c-1.9,0-3.6,0-5.3,0.1c-1.7,0.1-3.8,0.1-6.3,0.1c-1.3,0-2-0.2-2-0.7c0-0.5,1.2-0.8,3.7-0.9c1.8,0,2.9-0.4,3.4-1.1
			c0.3-0.5,0.4-1.6,0.4-3.5v-51.2c-5.6,0.1-9.1,0.3-10.5,0.9c-3.6,1.3-5.7,4.8-6.3,10.5c-0.2,1.7-0.6,2.6-1.2,2.6
			c-0.7,0-1-0.6-1-1.8c0-0.6,0-1.3,0.1-1.9l0.2-2c0.2-2.6,0.4-6.1,0.8-10.3h3.8l17.4,0.3c2.1,0.1,5.2,0.1,9.6,0l14.2-0.3
			c0.1,3.2,0.5,7.9,1.1,14.2c0,0.2,0,0.4,0.1,0.6C425.4,697.8,425.5,698,425.5,698.1z"/>
		<path class="st0" d="M502.2,741.4c0,0.5-0.5,0.8-1.6,0.8h-11.7c-0.8,0-1.9,0-3.5,0c-1.5,0-2.7,0-3.4,0c-1.1,0-1.7-0.2-1.7-0.7
			c0-0.5,1.3-0.8,4-0.9c1.4-0.1,2.2-0.4,2.4-0.7c0.2-0.4,0.3-1.7,0.3-4V711h-25.7v24.2c0,2.6,0.2,4.1,0.6,4.5c0.4,0.5,1.7,0.8,4,0.9
			c1.5,0.1,2.2,0.4,2.2,0.8c0,0.5-0.6,0.8-1.7,0.8h-0.8c-1.4,0-2.8,0-4.3,0c-1.5,0-2.4,0-2.7,0c-0.8,0-2,0-3.6,0c-1.6,0-4,0-7.2,0
			c-1.1,0-1.7-0.2-1.7-0.7c0-0.5,0.6-0.7,1.7-0.9c0.7-0.1,1.5-0.1,2.3-0.2c1.3-0.1,2.1-0.4,2.4-0.9c0.2-0.3,0.3-1.9,0.3-4.8v-45
			c0-2.6-0.1-4.1-0.4-4.5c-0.3-0.5-1.2-0.7-2.7-0.8c-1.8-0.1-2.8-0.2-3.1-0.3c-0.3-0.1-0.5-0.3-0.5-0.7c0-0.5,0.4-0.7,1.1-0.7
			c0.2,0,0.7,0,1.5,0.1c1.4,0.1,4.8,0.2,10.1,0.2c2.9,0,4.9,0,6.1-0.1c0.4-0.1,0.9-0.1,1.5-0.1c1,0,1.5,0.3,1.5,0.9
			c0,0.5-0.9,0.8-2.8,0.8c-1.8,0-3,0.2-3.3,0.6c-0.4,0.4-0.6,1.8-0.6,4.1v19.7h25.7v-18.4c0-3-0.2-4.8-0.7-5.4
			c-0.5-0.5-2-0.8-4.8-0.7c-0.9,0-1.3-0.3-1.3-0.8c0-0.5,0.5-0.8,1.5-0.8h0.4c0.8,0,2.2,0,4.2,0c2.1,0,3.6,0,4.6,0c3.5,0,5.8,0,7,0
			c1.2,0,2,0,2.3,0c1.2,0,1.8,0.3,1.8,0.8c0,0.5-1.3,0.8-3.8,0.9c-0.7,0-1.3,0.1-1.6,0.2c-0.6,0.2-0.9,0.5-1.1,0.9
			c-0.1,0.5-0.2,1.8-0.2,4V735c0,2.7,0.1,4.3,0.4,4.8c0.6,0.6,2.2,0.9,4.9,0.9C501.7,740.6,502.2,740.8,502.2,741.4z"/>
		<path class="st0" d="M569.8,728.4c0,0.2-0.1,1.6-0.2,4.2c-0.1,2.6-0.2,5-0.2,7.3v2.8c-5.6-0.3-16.6-0.5-33.1-0.5c-2,0-4,0-5.9,0
			c-1.9,0-3.2,0-3.9,0h-0.9c-1.1,0-1.6-0.2-1.6-0.7c0-0.3,0.2-0.5,0.5-0.5c0.2,0,1.3-0.1,3.2-0.2c1.5-0.1,2.4-0.4,2.7-0.9
			c0.3-0.5,0.5-1.9,0.5-4v-48.2c0-1.7-0.2-2.6-0.7-3c-0.5-0.3-2-0.5-4.7-0.5c-0.9,0-1.4-0.2-1.4-0.7c0-0.5,0.6-0.7,1.9-0.7h14.6
			c0.5,0,3.7,0,9.7,0c5.9,0,9.9,0,12,0c1.7,0,3.3-0.1,4.7-0.3c0.1,2.5,0.4,5.8,0.8,10.2l0.3,3.7c0.1,0.3,0.1,0.7,0.1,1.1
			c0,0.6-0.3,0.9-0.8,0.9c-0.6,0-1.1-0.7-1.4-2.1c-1.1-5.2-2.9-8.4-5.3-9.8c-1.8-1-6.6-1.5-14.3-1.5h-7v25.1h2.1
			c6.4,0,10.3-0.5,11.7-1.5c1.4-1,2.3-3.8,2.9-8.5c0.1-1.2,0.4-1.8,0.9-1.8c0.6,0,0.9,0.5,0.9,1.5s-0.1,2.5-0.2,4.5
			c-0.1,2-0.2,3.5-0.2,4.5c0,6.1,0.1,10.3,0.3,12.6c0,0.6,0.1,1.1,0.1,1.5c0,0.7-0.3,1.1-0.9,1.1c-0.4,0-0.7-0.2-0.8-0.7
			c-0.1-0.5-0.4-2.1-0.7-4.7c-0.5-3.4-1.8-5.4-4.2-6.2c-1-0.3-3.7-0.5-8-0.5h-3.8v28.6c12.5,0,19.9-0.3,22-0.8
			c3.8-0.8,5.9-4.4,6.4-10.8c0.1-1.4,0.5-2.1,1.1-2.1C569.5,726.6,569.8,727.2,569.8,728.4z"/>
	</g>
	<g>
		<polygon class="st1" points="947.9,19.9 686.9,280.9 947.9,541.9 		"/>
		<polygon class="st2" points="284.1,284.1 0,0 0,568.1 		"/>
		<polygon class="st3" points="0,739.4 228.5,739.4 483.9,483.9 284.1,284.1 0,568.1 		"/>
		<polygon class="st4" points="739.4,739.4 947.9,739.4 947.9,541.9 686.9,280.9 483.9,483.9 		"/>
		
			<rect x="341.9" y="141.2" transform="matrix(0.7071 -0.7071 0.7071 0.7071 -57.5525 426.0288)" class="st3" width="287.1" height="282.7"/>
	</g>
	<g>
		<path class="st0" d="M105.1,1079c-4.6,0-7.9,0.5-9.9,1.4c-2,0.9-3.2,2.3-3.7,4.1c-0.5,1.8-0.7,4.7-0.7,8.8v76.3h-6.5l-62.9-74.8
			v53c0,4,0.3,6.9,0.7,8.8c0.5,1.8,1.8,3.2,3.8,4.2c2,1,5.3,1.5,9.9,1.5v6.5H0v-6.5c4.3,0,7.3-0.5,9.3-1.5c1.9-1,3.1-2.4,3.5-4.2
			c0.5-1.8,0.7-4.7,0.7-8.8v-49.1c0-4-0.1-7-0.3-8.9c-0.2-2-0.7-3.7-1.5-5.2c-0.8-1.5-2.1-2.7-3.9-3.6c-1.8-0.9-4.3-1.6-7.6-1.9
			v-6.5h28l54.8,64.7v-43.9c0-3.6-0.3-6.3-0.7-8.3c-0.5-1.9-1.7-3.4-3.7-4.4c-2-1-5.1-1.6-9.3-1.6v-6.5h35.9V1079z"/>
		<path class="st0" d="M276.1,1168.7h-45.3v-6.5c3.8,0,6.6-0.3,8.4-0.8c1.7-0.5,2.6-1.8,2.6-3.9c0-1.4-0.3-2.9-0.8-4.3l-4.5-11.4
			h-31.2l-2.3,6.2c-1.3,3.5-2,6-2,7.6c0,2.8,1.1,4.6,3.3,5.4c2.2,0.8,4.8,1.1,7.7,1.1v6.5h-33.1v-6.5c2.6,0,4.9-0.5,6.7-1.5
			c1.8-1,3.6-2.9,5.3-5.6c1.7-2.8,3.5-6.7,5.4-11.7l27.7-72.7h6.7l29.3,74.9c2.1,5.3,3.7,8.9,4.7,10.8c1,1.9,2.4,3.3,4.1,4.3
			c1.7,1,4.2,1.5,7.4,1.5V1168.7z M233.8,1134.8l-13.3-33.6l-12.6,33.6H233.8z"/>
		<path class="st0" d="M442.3,1099.8h-6.7c-0.6-6-1.9-10.4-3.9-13.2c-2-2.8-4.2-4.6-6.5-5.3s-5-1-8-1h-12.2v70.5
			c0,2.8,0.3,5,0.9,6.5c0.6,1.5,1.9,2.7,4,3.6c2.1,0.9,5.1,1.3,9.2,1.3v6.5h-48.3v-6.5c5.9,0,9.7-0.8,11.4-2.6
			c1.7-1.7,2.6-4.6,2.6-8.8v-70.5h-10.2c-4,0-7.4,0.3-10,1c-2.6,0.6-5,2.4-7,5.2c-2,2.9-3.2,7.3-3.4,13.2h-6.7v-27.3h95.1V1099.8z"
			/>
		<path class="st0" d="M570.5,1168.7h-48.8v-6.5c4.1,0,7.1-0.4,9.2-1.2c2.1-0.8,3.4-2,4.1-3.5c0.6-1.6,1-3.8,1-6.7v-60.4
			c0-4.2-0.9-7.1-2.6-8.8c-1.7-1.7-5.6-2.5-11.7-2.5v-6.5h48.8v6.5c-4.1,0-7.1,0.4-9.2,1.2c-2.1,0.8-3.4,2-4.1,3.5
			c-0.6,1.5-1,3.8-1,6.6v60.4c0,2.7,0.3,4.9,0.9,6.5c0.6,1.6,1.9,2.8,3.9,3.6c2,0.9,5.1,1.3,9.4,1.3V1168.7z"/>
		<path class="st0" d="M760.3,1120.6c0,8.8-2.1,16.9-6.2,24.6c-4.2,7.6-10.3,13.8-18.5,18.4c-8.2,4.6-17.8,6.9-28.9,6.9
			c-9.1,0-17.1-1.5-24-4.4c-6.9-2.9-12.5-6.9-16.9-11.8c-4.4-4.9-7.6-10.3-9.7-16.2c-2.1-5.9-3.2-11.8-3.2-17.7c0-8.6,2-16.7,6-24.3
			c4-7.6,10.1-13.8,18.2-18.4c8.1-4.7,17.8-7,29-7c10.3,0,19,1.7,26.2,5c7.2,3.4,12.8,7.6,16.8,12.7c4,5.1,6.9,10.5,8.6,16.1
			C759.4,1110.2,760.3,1115.5,760.3,1120.6z M737.3,1120.3c0-5.4-0.5-10.5-1.4-15.3c-0.9-4.8-2.5-9.2-4.9-13.1
			c-2.3-3.9-5.5-7-9.5-9.3c-4-2.3-9-3.4-14.9-3.4c-8.1,0-14.5,2-19,6.1c-4.6,4-7.7,9.1-9.3,15.2c-1.6,6.1-2.5,12.7-2.5,19.9
			c0,4,0.3,8.1,0.8,12.4c0.5,4.3,1.8,8.7,3.8,13.2c2,4.5,5.2,8.3,9.5,11.4c4.4,3.1,10,4.6,16.9,4.6c6.9,0,12.4-1.6,16.7-4.8
			c4.3-3.2,7.4-7.1,9.4-11.7c2-4.6,3.2-9,3.7-13.2C737,1128.1,737.3,1124.1,737.3,1120.3z"/>
		<path class="st0" d="M947.9,1079c-4.6,0-7.9,0.5-9.9,1.4c-2,0.9-3.2,2.3-3.7,4.1c-0.5,1.8-0.7,4.7-0.7,8.8v76.3h-6.5l-62.9-74.8
			v53c0,4,0.3,6.9,0.7,8.8c0.5,1.8,1.8,3.2,3.8,4.2c2,1,5.3,1.5,9.9,1.5v6.5h-35.8v-6.5c4.3,0,7.3-0.5,9.3-1.5
			c1.9-1,3.1-2.4,3.5-4.2c0.5-1.8,0.7-4.7,0.7-8.8v-49.1c0-4-0.1-7-0.3-8.9c-0.2-2-0.7-3.7-1.5-5.2c-0.8-1.5-2.1-2.7-3.9-3.6
			c-1.8-0.9-4.3-1.6-7.6-1.9v-6.5h28l54.8,64.7v-43.9c0-3.6-0.3-6.3-0.7-8.3c-0.5-1.9-1.7-3.4-3.7-4.4s-5.1-1.6-9.3-1.6v-6.5h35.9
			V1079z"/>
	</g>
</g>
</svg>
